<svg width="261.0599609375px" height="138.830029296875px" xmlns="http://www.w3.org/2000/svg" viewBox="119.47001953124999 5.584985351562494 261.0599609375 138.830029296875" style="background: rgba(0, 0, 0, 0);" preserveAspectRatio="xMidYMid"><defs><linearGradient id="editing-outline-gradient" x1="-0.49939082701909576" x2="1.4993908270190959" y1="0.465100503297499" y2="0.5348994967025009"><stop offset="0" stop-color="#000000"></stop><stop offset="1" stop-color="#700d99"></stop></linearGradient><filter id="editing-outline" x="-100%" y="-100%" width="300%" height="300%"><feMorphology in="SourceGraphic" operator="dilate" radius="2" result="outline"></feMorphology><feComposite operator="out" in="outline" in2="SourceAlpha"></feComposite></filter></defs><g filter="url(#editing-outline)"><g transform="translate(160.94000220298767, 109.90999984741211)"><path d="M31.65-24.15L46.80-25.50L46.80-25.50Q41.40-13.65 41.40 0.07L41.40 0.07L41.40 0.07Q39.38 1.50 36.41 1.50L36.41 1.50L36.41 1.50Q33.45 1.50 31.57 0.11L31.57 0.11L31.57 0.11Q29.70-1.27 29.32-2.70L29.32-2.70L29.32-2.70Q27.45-0.75 24.41 0.38L24.41 0.38L24.41 0.38Q21.38 1.50 18.15 1.50L18.15 1.50L18.15 1.50Q14.92 1.50 12.11 0.45L12.11 0.45L12.11 0.45Q9.30-0.60 7.13-2.92L7.13-2.92L7.13-2.92Q2.32-8.03 2.32-17.70L2.32-17.70L2.32-17.70Q2.32-32.70 10.35-41.70L10.35-41.70L10.35-41.70Q18.60-51 33.23-51L33.23-51L33.23-51Q43.35-51 46.95-45.75L46.95-45.75L46.95-45.75Q48.07-44.10 48.07-42.11L48.07-42.11L48.07-42.11Q48.07-40.13 47.21-38.44L47.21-38.44L47.21-38.44Q46.35-36.75 45-35.40L45-35.40L45-35.40Q41.77-32.40 37.80-32.40L37.80-32.40L37.80-32.40Q36.23-32.40 34.73-32.92L34.73-32.92L34.73-32.92Q35.02-35.17 35.02-37.80L35.02-37.80L35.02-37.80Q35.02-40.42 34.84-41.63L34.84-41.63L34.84-41.63Q34.65-42.82 34.20-43.80L34.20-43.80L34.20-43.80Q33.23-45.82 31.09-45.82L31.09-45.82L31.09-45.82Q28.95-45.82 26.59-43.54L26.59-43.54L26.59-43.54Q24.22-41.25 22.35-37.50L22.35-37.50L22.35-37.50Q18.22-29.10 18.22-18.97L18.22-18.97L18.22-18.97Q18.22-14.32 20.02-11.03L20.02-11.03L20.02-11.03Q21.97-7.42 25.43-7.42L25.43-7.42L25.43-7.42Q26.63-7.42 27.71-8.03L27.71-8.03L27.71-8.03Q28.80-8.63 29.25-9.07L29.25-9.07L31.65-24.15ZM68.47-4.13L68.47-4.13L68.47-4.13Q66.15 1.50 58.72 1.50L58.72 1.50L58.72 1.50Q54.90 1.50 52.50-1.13L52.50-1.13L52.50-1.13Q50.47-3.45 50.47-5.77L50.47-5.77L50.47-5.77Q50.47-11.85 53.25-23.70L53.25-23.70L56.02-38.25L71.25-39.75L66.67-16.05L66.67-16.05Q65.40-10.50 65.40-8.55L65.40-8.55L65.40-8.55Q65.40-4.27 68.47-4.13ZM57.37-48.67L57.37-48.67L57.37-48.67Q57.37-51.60 59.81-53.17L59.81-53.17L59.81-53.17Q62.25-54.75 65.77-54.75L65.77-54.75L65.77-54.75Q69.30-54.75 71.44-53.17L71.44-53.17L71.44-53.17Q73.57-51.60 73.57-48.67L73.57-48.67L73.57-48.67Q73.57-45.75 71.21-44.25L71.21-44.25L71.21-44.25Q68.85-42.75 65.32-42.75L65.32-42.75L65.32-42.75Q61.80-42.75 59.59-44.25L59.59-44.25L59.59-44.25Q57.37-45.75 57.37-48.67ZM104.10-43.50L104.10-43.50L104.10-43.50Q105.15-45.30 105.15-47.25L105.15-47.25L105.15-47.25Q105.15-50.70 103.05-50.70L103.05-50.70L103.05-50.70Q99.82-50.70 98.47-44.10L98.47-44.10L97.35-38.25L104.17-38.25L103.72-34.88L96.67-34.88L89.92 0L74.77 1.50L81.97-34.88L76.65-34.88L77.32-38.25L82.57-38.25L84.15-44.17L84.15-44.17Q85.50-49.65 91.27-52.20L91.27-52.20L91.27-52.20Q95.47-54 102.52-54L102.52-54L102.52-54Q109.57-54 112.72-52.20L112.72-52.20L112.72-52.20Q115.87-50.40 115.87-48L115.87-48L115.87-48Q115.87-45.60 114.00-44.10L114.00-44.10L114.00-44.10Q112.12-42.60 110.02-42.60L110.02-42.60L110.02-42.60Q105.90-42.60 104.10-43.50ZM132.75-43.50L132.75-43.50L132.75-43.50Q133.80-45.30 133.80-47.25L133.80-47.25L133.80-47.25Q133.80-50.70 131.70-50.70L131.70-50.70L131.70-50.70Q128.47-50.70 127.13-44.10L127.13-44.10L126-38.25L132.82-38.25L132.38-34.88L125.32-34.88L118.57 0L103.42 1.50L110.63-34.88L105.30-34.88L105.97-38.25L111.22-38.25L112.80-44.17L112.80-44.17Q114.15-49.65 119.92-52.20L119.92-52.20L119.92-52.20Q124.13-54 131.17-54L131.17-54L131.17-54Q138.22-54 141.38-52.20L141.38-52.20L141.38-52.20Q144.52-50.40 144.52-48L144.52-48L144.52-48Q144.52-45.60 142.65-44.10L142.65-44.10L142.65-44.10Q140.77-42.60 138.67-42.60L138.67-42.60L138.67-42.60Q134.55-42.60 132.75-43.50ZM156-8.47L156-8.47L156-8.47Q152.10-4.42 144.97-4.42L144.97-4.42L144.97-4.42Q136.05-4.42 134.18-10.95L134.18-10.95L134.18-10.95Q133.57-12.90 133.57-15.07L133.57-15.07L133.57-15.07Q133.57-17.25 134.03-19.50L134.03-19.50L137.55-38.25L152.78-39.75L148.65-17.93L148.65-17.93Q148.50-16.95 148.28-15.90L148.28-15.90L148.28-15.90Q148.05-14.85 148.05-13.76L148.05-13.76L148.05-13.76Q148.05-12.67 148.43-11.96L148.43-11.96L148.43-11.96Q148.80-11.25 149.32-10.80L149.32-10.80L149.32-10.80Q150.22-10.20 151.84-10.20L151.84-10.20L151.84-10.20Q153.45-10.20 154.84-12.15L154.84-12.15L154.84-12.15Q156.22-14.10 156.90-17.47L156.90-17.47L161.03-38.25L175.80-39.75L170.18-10.28L170.18-10.28Q167.40 4.13 161.70 9.82L161.70 9.82L161.70 9.82Q158.78 12.75 154.99 13.91L154.99 13.91L154.99 13.91Q151.20 15.07 146.32 15.07L146.32 15.07L146.32 15.07Q138.45 15.07 133.95 12.60L133.95 12.60L133.95 12.60Q129.45 10.13 129.45 6L129.45 6L129.45 6Q129.45 2.92 131.78 1.16L131.78 1.16L131.78 1.16Q134.10-0.60 137.70-0.60L137.70-0.60L137.70-0.60Q140.85-0.60 143.25 0.75L143.25 0.75L143.25 0.75Q144.68 1.57 145.35 2.63L145.35 2.63L145.35 2.63Q143.63 4.13 143.63 6.60L143.63 6.60L143.63 6.60Q143.63 9.90 146.63 9.90L146.63 9.90L146.63 9.90Q151.57 9.90 154.43-1.50L154.43-1.50L154.43-1.50Q155.25-4.88 156-8.47Z" fill="url(#editing-outline-gradient)"></path></g></g><style>text {
  font-size: 64px;
  font-family: Arial Black;
  dominant-baseline: central;
  text-anchor: middle;
}</style></svg>